<svg width="24" height="24" viewBox="0 0 24 24" fill="none" xmlns="http://www.w3.org/2000/svg">
<g id="Ic_24-Guarantee">
<path id="Star 6" d="M12 1.5L12.0022 7.1671C12.0029 8.94817 14.156 9.84001 15.4158 8.58109L19.4246 4.57538L15.4189 8.58416C14.16 9.84405 15.0518 11.9971 16.8329 11.9978L22.5 12L16.8329 12.0022C15.0518 12.0029 14.16 14.156 15.4189 15.4158L19.4246 19.4246L15.4158 15.4189C14.156 14.16 12.0029 15.0518 12.0022 16.8329L12 22.5L11.9978 16.8329C11.9971 15.0518 9.84405 14.16 8.58416 15.4189L4.57538 19.4246L8.58109 15.4158C9.84001 14.156 8.94817 12.0029 7.1671 12.0022L1.5 12L7.1671 11.9978C8.94817 11.9971 9.84001 9.84405 8.58109 8.58416L4.57538 4.57538L8.58416 8.58109C9.84405 9.84001 11.9971 8.94817 11.9978 7.1671L12 1.5Z" stroke="white" stroke-width="2"/>
<path id="Vector" d="M16 10L11.625 14L9 12.1176" stroke="white" stroke-width="2" stroke-linecap="round" stroke-linejoin="round"/>
</g>
</svg>
