<svg width="29" height="27" viewBox="0 0 29 27" fill="none" xmlns="http://www.w3.org/2000/svg">
<g id="Icon" clip-path="url(#clip0_1_280)">
<path id="Vector" d="M16.3209 10.3931C16.264 10.2224 16.1218 10.1087 15.8942 10.0518H8.89631L10.0911 1.17635C10.0911 1.00567 10.0626 0.877659 10.0057 0.792318C9.94884 0.706978 9.8635 0.635862 9.74972 0.578968C9.63593 0.522074 9.50792 0.522074 9.36568 0.578968C9.22345 0.635862 9.12389 0.721203 9.06699 0.83499L0.618284 15.6842C0.504497 15.8549 0.490273 16.0256 0.575614 16.1963C0.660954 16.367 0.817412 16.4807 1.04499 16.5376H7.95757L7.01882 25.4984C6.96193 25.726 7.07571 25.8967 7.36018 26.0104C7.64465 26.1242 7.84378 26.0389 7.95757 25.7544L16.3209 10.9052C16.4347 10.7345 16.4347 10.5638 16.3209 10.3931Z" fill="#2CAAC1"/>
</g>
<defs>
<clipPath id="clip0_1_280">
<rect width="28.0702" height="25.6021" fill="white" transform="matrix(1 0 0 -1 0.515869 26.0959)"/>
</clipPath>
</defs>
</svg>
