<svg width="32" height="32" viewBox="0 0 32 32" fill="none" xmlns="http://www.w3.org/2000/svg">
<g id="about-three-icon.svg">
<path id="Vector" d="M14.1188 25.2546C14.0159 25.2546 13.9147 25.2277 13.8253 25.1765C13.7359 25.1253 13.6615 25.0517 13.6094 24.9629C11.6463 21.6184 6.41259 14.4971 6.36001 14.4256C6.27593 14.3113 6.2358 14.1706 6.24694 14.0291C6.25808 13.8876 6.31976 13.7549 6.42069 13.6552L8.03002 12.0648C8.12831 11.9677 8.25753 11.9081 8.39521 11.8964C8.5329 11.8847 8.67033 11.9216 8.7836 12.0007L13.9959 15.6402C17.4838 11.1676 20.7236 8.07769 22.855 6.25437C25.2546 4.20198 26.7823 3.278 26.8462 3.23995C26.938 3.18486 27.0431 3.15575 27.1501 3.15576H29.7538C29.8736 3.15575 29.9905 3.19215 30.0891 3.26013C30.1878 3.32809 30.2633 3.42444 30.3059 3.53638C30.3486 3.64832 30.3561 3.77057 30.3278 3.88692C30.2993 4.00326 30.2361 4.10821 30.1467 4.18786C22.753 10.7734 14.7126 24.8151 14.6322 24.9562C14.5809 25.0462 14.5069 25.1212 14.4175 25.1736C14.328 25.226 14.2264 25.2539 14.1227 25.2545L14.1188 25.2546Z" fill="#2CAAC1"/>
<path id="Vector_2" d="M14.0056 27.7162C8.14159 27.7162 3.37085 22.9455 3.37085 17.0815C3.37085 11.2175 8.14159 6.44678 14.0056 6.44678C15.1814 6.44547 16.3492 6.63955 17.4613 7.02105C17.6095 7.07198 17.7315 7.17969 17.8002 7.3205C17.869 7.4613 17.8791 7.62366 17.8282 7.77187C17.7772 7.92006 17.6695 8.04197 17.5287 8.11076C17.3879 8.17954 17.2255 8.18957 17.0773 8.13865C16.0885 7.79958 15.0503 7.62716 14.005 7.62842C8.79257 7.62842 4.55196 11.8691 4.55196 17.0815C4.55196 22.294 8.79257 26.5346 14.005 26.5346C19.2175 26.5346 23.4582 22.294 23.4582 17.0815C23.4583 16.442 23.3941 15.804 23.2664 15.1772C23.2509 15.1012 23.2505 15.0229 23.2651 14.9467C23.2799 14.8705 23.3096 14.7979 23.3523 14.7332C23.3951 14.6685 23.4502 14.6127 23.5145 14.5693C23.5788 14.5258 23.651 14.4955 23.7271 14.4799C23.8031 14.4644 23.8814 14.4639 23.9576 14.4787C24.0338 14.4934 24.1064 14.523 24.1711 14.5658C24.2359 14.6086 24.2916 14.6637 24.335 14.7281C24.3785 14.7924 24.4088 14.8646 24.4244 14.9407C24.568 15.6452 24.6403 16.3625 24.6401 17.0815C24.6404 22.9455 19.8696 27.7162 14.0056 27.7162Z" fill="#2CAAC1"/>
</g>
</svg>
